<?xml version="1.0" encoding="UTF-8" standalone="no"?>
<!-- Created with Inkscape (http://www.inkscape.org/) -->

<svg
   version="1.1"
   id="svg2"
   xml:space="preserve"
   width="2829.3333"
   height="2829.3333"
   viewBox="0 0 2829.3333 2829.3333"
   sodipodi:docname="vecteezy_analysis-percent-discount_.eps"
   xmlns:inkscape="http://www.inkscape.org/namespaces/inkscape"
   xmlns:sodipodi="http://sodipodi.sourceforge.net/DTD/sodipodi-0.dtd"
   xmlns="http://www.w3.org/2000/svg"
   xmlns:svg="http://www.w3.org/2000/svg"><defs
     id="defs6" /><sodipodi:namedview
     id="namedview4"
     pagecolor="#ffffff"
     bordercolor="#666666"
     borderopacity="1.0"
     inkscape:pageshadow="2"
     inkscape:pageopacity="0.0"
     inkscape:pagecheckerboard="0" /><g
     id="g8"
     inkscape:groupmode="layer"
     inkscape:label="ink_ext_XXXXXX"
     transform="matrix(1.3333333,0,0,-1.3333333,0,2829.3333)"><g
       id="g10"
       transform="scale(0.1)"><path
         d="m 17968.5,4097.2 c 233.6,-233.6 233.6,-612.1 0,-845.8 -233.5,-233.4 -612.1,-233.4 -845.7,0.1 l -6097.7,6097.8 c -233.6,233.6 -233.6,612.1 0,845.7 233.5,233.5 612.1,233.5 845.5,0 l 6097.9,-6097.8"
         style="fill:#aee4e1;fill-opacity:1;fill-rule:nonzero;stroke:none"
         id="path12" /><path
         d="m 12777.5,9288.2 -1106.1,1106.1 c -123.4,123.4 -412.8,34.2 -646.3,-199.3 -233.6,-233.6 -322.8,-523 -199.3,-646.4 l 1106,-1106.1 845.7,845.7"
         style="fill:#7fa0a3;fill-opacity:1;fill-rule:nonzero;stroke:none"
         id="path14" /><path
         d="m 11839.5,16645.8 c 2006.3,-2006.3 2006.3,-5259 -0.1,-7265.3 -2006.2,-2006.3 -5258.85,-2006.3 -7265.22,0 -2006.21,2006.3 -2006.21,5258.9 0,7265.2 2006.29,2006.3 5259.1,2006.3 7265.32,0.1"
         style="fill:#aee4e1;fill-opacity:1;fill-rule:nonzero;stroke:none"
         id="path16" /><path
         d="m 11395.9,16202.2 c 1761.2,-1761.3 1761.4,-4617 0,-6378.3 -1761.21,-1761.2 -4616.88,-1761.2 -6378.17,0.2 -1761.25,1761.2 -1761.25,4616.8 0,6378.1 1761.29,1761.2 4616.88,1761.3 6378.17,0"
         style="fill:#7fa0a3;fill-opacity:1;fill-rule:nonzero;stroke:none"
         id="path18" /><path
         d="m 11006.7,15813 c 1546.2,-1546.3 1546.2,-4053.5 0,-5599.7 -1546.19,-1546.1 -4053.38,-1546.1 -5599.55,0.1 -1546.29,1546.3 -1546.17,4053.3 0,5599.4 1546.17,1546.3 4053.24,1546.4 5599.55,0.2"
         style="fill:#c6c5c5;fill-opacity:1;fill-rule:nonzero;stroke:none"
         id="path20" /><path
         d="m 10849.1,15655.4 c 1546.2,-1546.3 1616.8,-3982.8 157.6,-5442.1 -1459.2,-1459.2 -3895.72,-1388.6 -5442.01,157.6 -1546.29,1546.4 -1616.72,3982.8 -157.54,5441.9 1459.18,1459.3 3895.7,1388.9 5441.95,-157.4"
         style="fill:#ffffff;fill-opacity:1;fill-rule:nonzero;stroke:none"
         id="path22" /><path
         d="m 7306.52,13806.2 c -146.83,0 -266.01,119.1 -266.01,266 0,146.9 119.18,266 266.01,266 146.96,0 266.14,-119.1 266.14,-266 0,-146.9 -119.18,-266 -266.14,-266 z m 0,913.3 c -357.38,0 -647.18,-289.8 -647.18,-647.3 0,-357.4 289.8,-647.2 647.18,-647.2 357.54,0 647.31,289.8 647.31,647.2 0,357.5 -289.77,647.3 -647.31,647.3"
         style="fill:#f4737e;fill-opacity:1;fill-rule:nonzero;stroke:none"
         id="path24" /><path
         d="M 8911.21,14719.5 6802.58,11246 h 682.77 l 2108.56,3473.5 h -682.7"
         style="fill:#f4737e;fill-opacity:1;fill-rule:nonzero;stroke:none"
         id="path26" /><path
         d="m 9107.15,11636 c -146.95,0 -266.06,119.2 -266.06,266 0,147 119.11,266.1 266.06,266.1 146.95,0 266.05,-119.1 266.05,-266.1 0,-146.8 -119.1,-266 -266.05,-266 z m 0,913.3 c -357.42,0 -647.27,-289.8 -647.27,-647.3 0,-357.4 289.85,-647.2 647.27,-647.2 357.46,0 647.26,289.8 647.26,647.2 0,357.5 -289.8,647.3 -647.26,647.3"
         style="fill:#f4737e;fill-opacity:1;fill-rule:nonzero;stroke:none"
         id="path28" /><path
         d="M 9593.91,15488.6 H 6882.66 v 138.8 h 2711.25 v -138.8"
         style="fill:#c6c5c5;fill-opacity:1;fill-rule:nonzero;stroke:none"
         id="path30" /><path
         d="m 9107.15,10723.6 h -1737.7 v 138.8 h 1737.7 v -138.8"
         style="fill:#c6c5c5;fill-opacity:1;fill-rule:nonzero;stroke:none"
         id="path32" /><path
         d="M 9593.91,10398.9 H 6882.66 v 138.8 h 2711.25 v -138.8"
         style="fill:#c6c5c5;fill-opacity:1;fill-rule:nonzero;stroke:none"
         id="path34" /></g></g></svg>
