<?xml version="1.0" encoding="UTF-8" standalone="no"?>
<!-- Created with Inkscape (http://www.inkscape.org/) -->

<svg
   version="1.1"
   id="svg2"
   xml:space="preserve"
   width="2829.3333"
   height="2829.3333"
   viewBox="0 0 2829.3333 2829.3333"
   sodipodi:docname="1797_U1RVRElPIEtBVCA0NTAtNTM.eps"
   xmlns:inkscape="http://www.inkscape.org/namespaces/inkscape"
   xmlns:sodipodi="http://sodipodi.sourceforge.net/DTD/sodipodi-0.dtd"
   xmlns="http://www.w3.org/2000/svg"
   xmlns:svg="http://www.w3.org/2000/svg"><defs
     id="defs6" /><sodipodi:namedview
     id="namedview4"
     pagecolor="#ffffff"
     bordercolor="#666666"
     borderopacity="1.0"
     inkscape:pageshadow="2"
     inkscape:pageopacity="0.0"
     inkscape:pagecheckerboard="0" /><g
     id="g8"
     inkscape:groupmode="layer"
     inkscape:label="ink_ext_XXXXXX"
     transform="matrix(1.3333333,0,0,-1.3333333,0,2829.3333)"><g
       id="g10"
       transform="scale(0.1)"><path
         d="m 18746.9,3884.8 c 0,-672.9 -545.2,-1218.1 -1217.9,-1218.1 h -5630.2 c -672.7,0 -1218,545.2 -1218,1218.1 v 14117.8 c 0,672.7 545.3,1218.1 1218,1218.1 H 17529 c 672.7,0 1217.9,-545.4 1217.9,-1218.1 V 3884.8"
         style="fill:#293a74;fill-opacity:1;fill-rule:nonzero;stroke:none"
         id="path12" /><path
         d="m 10680.8,3883.6 h 8066.1 v 14119 h -8066.1 z"
         style="fill:#182041;fill-opacity:1;fill-rule:nonzero;stroke:none"
         id="path14" /><path
         d="m 15719.8,18489.4 c 0,-76.3 -61.8,-138.2 -138.1,-138.2 h -2119.6 c -76.3,0 -138.1,61.9 -138.1,138.2 0,76.3 61.8,138.3 138.1,138.3 h 2119.6 c 76.3,0 138.1,-62 138.1,-138.3"
         style="fill:#182041;fill-opacity:1;fill-rule:nonzero;stroke:none"
         id="path16" /><path
         d="m 16103.8,18489.4 c 0,-76.3 -61.8,-138.2 -138.2,-138.2 -76.3,0 -138.3,61.9 -138.3,138.2 0,76.3 62,138.2 138.3,138.2 76.4,0 138.2,-61.9 138.2,-138.2"
         style="fill:#182041;fill-opacity:1;fill-rule:nonzero;stroke:none"
         id="path18" /><path
         d="m 17904.4,11024.6 c 0,-1623.3 -1316,-2939.4 -2939.3,-2939.4 -1623.3,0 -2939.2,1316.1 -2939.2,2939.4 0,1623.4 1315.9,2939.4 2939.2,2939.4 1623.3,0 2939.3,-1316 2939.3,-2939.4"
         style="fill:#9842a6;fill-opacity:1;fill-rule:nonzero;stroke:none"
         id="path20" /><path
         d="m 14917.6,10901.2 c 0,-281 -227.8,-508.7 -508.7,-508.7 -281,0 -508.9,227.7 -508.9,508.7 0,280.9 227.9,508.7 508.9,508.7 280.9,0 508.7,-227.8 508.7,-508.7"
         style="fill:#ffffff;fill-opacity:1;fill-rule:nonzero;stroke:none"
         id="path22" /><path
         d="m 16188.8,11676.5 c -68.6,0 -124.2,55.4 -124.2,124.2 0,68.4 55.6,124.2 124.2,124.2 68.7,0 124.3,-55.8 124.3,-124.2 0,-68.8 -55.6,-124.2 -124.3,-124.2 m -1760.7,-1559.8 c -433.4,0 -784.5,351.3 -784.5,784.5 0,433.1 351.1,784.2 784.5,784.2 433.3,0 784.3,-351.1 784.3,-784.2 0,-433.2 -351,-784.5 -784.3,-784.5 m 1790,2047.9 h -2505.9 c -191.5,0 -346.7,-155.5 -346.7,-346.9 V 9984.6 c 0,-191.5 155.2,-346.9 346.7,-346.9 h 2505.9 c 191.4,0 346.7,155.4 346.7,346.9 v 1833.1 c 0,191.4 -155.3,346.9 -346.7,346.9"
         style="fill:#ffffff;fill-opacity:1;fill-rule:nonzero;stroke:none"
         id="path24" /><path
         d="m 14408.9,12210.6 v 111.2 c 0,49.6 -40.3,89.7 -89.6,89.7 H 13766 c -49.6,0 -89.7,-40.1 -89.7,-89.7 v -111.2 h 732.6"
         style="fill:#ffffff;fill-opacity:1;fill-rule:nonzero;stroke:none"
         id="path26" /><path
         d="m 13916.4,19220.7 h -2017.6 c -672.7,0 -1218,-545.4 -1218,-1218.1 H 14151 l -67.1,348.6 h -621.8 c -76.3,0 -138.1,61.9 -138.1,138.2 0,76.3 61.8,138.3 138.1,138.3 h 568.5 l -114.2,593 M 16871,3883.6 h -6190.2 c 0.6,-672.3 545.7,-1216.9 1218,-1216.9 h 5206.7 L 16871,3883.6"
         style="fill:#586aa5;fill-opacity:1;fill-rule:nonzero;stroke:none"
         id="path28" /><path
         d="M 14151,18002.6 H 10680.8 V 3884.8 c 0,-0.4 0,-0.8 0,-1.2 H 16871 l -847.2,4398.1 c -328.5,-126.9 -685.5,-196.5 -1058.7,-196.5 -1623.3,0 -2939.2,1316.1 -2939.2,2939.4 0,1611.4 1296.4,2920 2903.2,2939.2 l -778.1,4038.8"
         style="fill:#434f7b;fill-opacity:1;fill-rule:nonzero;stroke:none"
         id="path30" /><path
         d="m 14030.6,18627.7 h -568.5 c -76.3,0 -138.1,-62 -138.1,-138.3 0,-76.3 61.8,-138.2 138.1,-138.2 h 621.8 l -53.3,276.5"
         style="fill:#434f7b;fill-opacity:1;fill-rule:nonzero;stroke:none"
         id="path32" /><path
         d="m 14929.1,13963.8 c -1606.8,-19.2 -2903.2,-1327.8 -2903.2,-2939.2 0,-1623.3 1315.9,-2939.4 2939.2,-2939.4 373.2,0 730.2,69.6 1058.7,196.5 l -261.3,1356 h -2050.3 c -191.5,0 -346.7,155.4 -346.7,346.9 v 1833.1 c 0,191.4 155.2,346.9 346.7,346.9 h 1563.5 l -346.6,1799.2 m -1252.8,-1753.2 v 111.2 c 0,49.6 40.1,89.7 89.7,89.7 h 553.3 c 49.3,0 89.6,-40.1 89.6,-89.7 v -111.2 h -732.6 m 751.8,-525.2 c -433.4,0 -784.5,-351.1 -784.5,-784.2 0,-433.2 351.1,-784.5 784.5,-784.5 433.3,0 784.3,351.3 784.3,784.5 0,433.1 -351,784.2 -784.3,784.2 m -19.2,-1292.9 c -281,0 -508.9,227.7 -508.9,508.7 0,280.9 227.9,508.7 508.9,508.7 280.9,0 508.7,-227.8 508.7,-508.7 0,-281 -227.8,-508.7 -508.7,-508.7"
         style="fill:#be77c1;fill-opacity:1;fill-rule:nonzero;stroke:none"
         id="path34" /><path
         d="m 14408.9,11409.9 c -281,0 -508.9,-227.8 -508.9,-508.7 0,-281 227.9,-508.7 508.9,-508.7 280.9,0 508.7,227.7 508.7,508.7 0,280.9 -227.8,508.7 -508.7,508.7"
         style="fill:#ffffff;fill-opacity:1;fill-rule:nonzero;stroke:none"
         id="path36" /><path
         d="m 15275.7,12164.6 h -1563.5 c -191.5,0 -346.7,-155.5 -346.7,-346.9 V 9984.6 c 0,-191.5 155.2,-346.9 346.7,-346.9 h 2050.3 l -486.8,2526.9 m -847.6,-2047.9 c -433.4,0 -784.5,351.3 -784.5,784.5 0,433.1 351.1,784.2 784.5,784.2 433.3,0 784.3,-351.1 784.3,-784.2 0,-433.2 -351,-784.5 -784.3,-784.5"
         style="fill:#ffffff;fill-opacity:1;fill-rule:nonzero;stroke:none"
         id="path38" /><path
         d="M 14319.3,12411.5 H 13766 c -49.6,0 -89.7,-40.1 -89.7,-89.7 v -111.2 h 732.6 v 111.2 c 0,49.6 -40.3,89.7 -89.6,89.7"
         style="fill:#ffffff;fill-opacity:1;fill-rule:nonzero;stroke:none"
         id="path40" /><path
         d="m 5733.12,13002.3 c -43.16,-295.2 77.69,-652 327.56,-809.3 338.98,-213.7 521.41,99.3 563.65,423.2 34.29,260.9 -21.7,726.1 -305.39,857 -267.59,123.9 -550.82,-228.6 -585.82,-470.9"
         style="fill:#f8a18f;fill-opacity:1;fill-rule:nonzero;stroke:none"
         id="path42" /><path
         d="m 6298.87,12281.2 2210.53,2.1 2.11,-2748.9 -2210.54,-1.8 -2.1,2748.6"
         style="fill:#f8a18f;fill-opacity:1;fill-rule:nonzero;stroke:none"
         id="path44" /><path
         d="m 6974.98,10760.2 c -222.57,465.1 -355.09,935.6 -318.92,1521.5 l 1853.34,1.6 1.87,-2389.2 c -582.32,88.5 -1299.49,370.4 -1536.29,866.1"
         style="fill:#f57c6e;fill-opacity:1;fill-rule:nonzero;stroke:none"
         id="path46" /><path
         d="M 9883.31,9281.9 8478.37,9732 6399.2,9731.9 5468.32,9357.5 8405.82,6974.3 9883.31,9281.9"
         style="fill:#f8a18f;fill-opacity:1;fill-rule:nonzero;stroke:none"
         id="path48" /><path
         d="M 6063.47,9612.2 3558.98,8655.6 c 0,0 -840.11,-506.6 -616.15,-1297.3 l 393.11,-4432.7 c 1.94,-284.4 12.2,-595.3 25.73,-919.4 h 8504.73 c -144.6,3265.3 -396.4,5444.7 -396.4,5444.7 -209,1215.5 -932.8,1639.8 -932.8,1639.8 l -1504.27,463.6 c 0,0 128.37,-830.9 -1198.52,-892.5 0,0 -1647.58,-98 -1770.94,950.4"
         style="fill:#f5f5f3;fill-opacity:1;fill-rule:nonzero;stroke:none"
         id="path50" /><path
         d="m 10088,9040.9 c -212.85,87.8 -553.94,217.8 -769.86,58.2 -323.87,-239.5 -439.66,-652 -877.1,-734.3 -497.69,-93.8 -1138.68,-132.6 -1628.67,16.8 -396.67,121 -649.98,488.8 -1036.26,601.5 -318.58,92.9 -646.01,-5.7 -944.64,-123.8 -358.77,-142 -689.35,-347.9 -1025.36,-535 -252.61,-140.6 -546.75,-314.7 -843.68,-380.8 158.42,446 596.55,712.1 596.55,712.1 l 2504.49,956.6 c 123.36,-1048.4 1770.94,-950.4 1770.94,-950.4 1326.89,61.6 1198.52,892.5 1198.52,892.5 l 1504.27,-463.6 c 0,0 227.7,-133.6 464.5,-465.2 -321.4,87.5 -607.5,289.2 -913.7,415.4"
         style="fill:#11273a;fill-opacity:1;fill-rule:nonzero;stroke:none"
         id="path52" /><path
         d="m 6442.11,12112.2 c 127.62,-497.5 335.02,-919.3 745.88,-1250.4 402.21,-323.8 835.45,-518.8 1301.35,-225 370.25,234 639.48,609.9 813.29,1000.8 400.35,900 352.52,2223 -146.04,3053.6 -547.56,912.3 -1833.76,889.6 -2440.11,27.8 -493.89,-701.7 -481.06,-1803.2 -274.37,-2606.8"
         style="fill:#f8a18f;fill-opacity:1;fill-rule:nonzero;stroke:none"
         id="path54" /><path
         d="m 6486.21,12916.4 c 50.81,-177.8 80.84,-555 214,-690 257.62,-261.3 554.32,-301.4 881.64,-149.9 317.54,147.1 552.35,130.2 880.6,11.1 195.92,-71 384.71,-141.2 595.21,-113.6 233.82,30.6 349.02,242.4 465.9,437.7 -43.44,-275.9 -116.59,-539.5 -220.93,-774.1 -173.81,-390.9 -443.04,-766.8 -813.29,-1000.8 -465.9,-293.8 -899.14,-98.8 -1301.35,225 -410.86,331.1 -618.26,752.9 -745.88,1250.4 -63.04,245.2 -125.16,613.4 -143.24,894.2 123.42,2.8 154.57,24.8 187.34,-90"
         style="fill:#de907f;fill-opacity:1;fill-rule:nonzero;stroke:none"
         id="path56" /><path
         d="m 6181.29,12268 c 23.8,0 46.3,14.3 55.65,37.7 141.6,355.9 16.91,720.6 -65.68,841.4 -18.61,27.4 -56,34.3 -83.24,15.7 -27.34,-18.6 -34.35,-55.9 -15.69,-83.2 68.07,-99.5 175.92,-421.5 53.31,-729.5 -12.24,-30.8 2.75,-65.6 33.49,-77.8 7.28,-2.9 14.75,-4.3 22.16,-4.3"
         style="fill:#f57c6e;fill-opacity:1;fill-rule:nonzero;stroke:none"
         id="path58" /><path
         d="m 6224.45,12760.4 c 25.19,0 48.58,16 56.92,41.2 10.33,31.5 -6.76,65.3 -38.2,75.7 -131.29,43.1 -222.33,43.9 -324.93,3.4 -30.79,-12.2 -45.84,-47 -33.65,-77.8 12.19,-30.8 47,-45.8 77.74,-33.6 76.53,30.4 138,28.8 243.4,-5.9 6.24,-2 12.53,-3 18.72,-3"
         style="fill:#f57c6e;fill-opacity:1;fill-rule:nonzero;stroke:none"
         id="path60" /><path
         d="m 7232.54,12676.4 c -5.36,-74.8 127.38,-144.6 295.83,-156.5 168.91,-11.6 309.82,39.2 315.2,113.6 5.12,74.4 -127.39,144.8 -296.3,156.3 -168.68,11.9 -309.6,-39 -314.73,-113.4"
         style="fill:#f57c6e;fill-opacity:1;fill-rule:nonzero;stroke:none"
         id="path62" /><path
         d="m 8727.55,12485.7 c -5.38,-74.3 127.14,-144.3 296.05,-156.2 168.68,-11.6 309.59,39 314.71,113.6 5.38,74.4 -127.14,144.6 -295.81,156.3 -168.91,11.9 -309.83,-39.1 -314.95,-113.7"
         style="fill:#f57c6e;fill-opacity:1;fill-rule:nonzero;stroke:none"
         id="path64" /><path
         d="m 8387.67,12237.6 c 99.04,0 196.98,22.9 249.46,80.9 27.82,30.8 66.14,97.5 10.44,199.6 -359.4,659.4 -229.39,750 -134.44,816.2 22.92,16 44.27,31.4 61.19,48.8 23.04,23.8 22.45,61.7 -1.29,84.7 -23.79,23.1 -61.7,22.6 -84.69,-1.3 -11.95,-12.3 -27.46,-22.6 -43.68,-33.9 -164.95,-115 -281.59,-275.8 97.76,-971.9 23.27,-42.6 11.07,-56 5.89,-61.8 -45.91,-50.8 -228.82,-56.4 -337.35,-10.6 -30.1,12.9 -65.62,-1.3 -78.46,-31.9 -12.88,-30.4 1.4,-65.5 31.91,-78.4 58.27,-24.6 141.14,-40.4 223.26,-40.4"
         style="fill:#f57c6e;fill-opacity:1;fill-rule:nonzero;stroke:none"
         id="path66" /><path
         d="m 7955.55,13427.1 c 20.41,0 40.83,8 56.11,23.9 29.62,31.1 28.58,80.2 -2.4,109.9 -192.06,183.9 -519.61,164.1 -705.04,30.2 -34.76,-25.1 -42.63,-73.6 -17.49,-108.4 25.14,-34.8 73.72,-42.6 108.37,-17.5 131.82,95.2 376.43,108.2 506.73,-16.6 15.04,-14.4 34.4,-21.5 53.72,-21.5"
         style="fill:#2c2234;fill-opacity:1;fill-rule:nonzero;stroke:none"
         id="path68" /><path
         d="m 9264.61,13427.1 c 20.4,0 40.81,8 56.1,23.9 29.63,31.1 28.57,80.2 -2.39,109.9 -192.3,183.9 -519.8,164 -705.1,30.2 -34.76,-25.2 -42.57,-73.7 -17.44,-108.5 25.09,-34.6 73.66,-42.5 108.42,-17.4 131.71,95.1 376.38,108.2 506.67,-16.6 15.06,-14.4 34.42,-21.5 53.74,-21.5"
         style="fill:#2c2234;fill-opacity:1;fill-rule:nonzero;stroke:none"
         id="path70" /><path
         d="m 7633.83,13299.8 c 61.11,-3.2 106.38,-71.8 101.72,-152.7 -4.44,-80.9 -57.87,-144.1 -118.52,-140.6 -61.12,3.2 -106.62,71.7 -101.95,152.5 4.43,81.2 57.38,144 118.75,140.8"
         style="fill:#1d1e32;fill-opacity:1;fill-rule:nonzero;stroke:none"
         id="path72" /><path
         d="m 8968.54,13236.6 c 61.13,-3.2 106.62,-71.8 101.72,-152.7 -4.43,-80.9 -57.63,-144.1 -118.75,-140.6 -60.89,3.2 -106.39,71.6 -101.49,152.4 4.44,81.2 57.39,144 118.52,140.9"
         style="fill:#1d1e32;fill-opacity:1;fill-rule:nonzero;stroke:none"
         id="path74" /><path
         d="m 6486.21,12916.4 c -13.29,500.7 -37.79,683.7 -24.72,1047.1 -0.95,429.8 534.02,617.7 534.02,617.7 59.96,21.1 365.83,-144.1 444.45,-164.4 462.62,-119.1 990.35,-119.2 1417.76,116.1 174.04,95.8 286.02,57.3 414.11,-99.7 162.14,-198.8 227.23,-577.2 282.52,-1027.1 l 233.78,434.4 c 137.17,302.7 78.38,704.6 92.85,882.7 0,0 40.36,685.5 -616.37,824.9 0,0 -230.4,670.5 -1020.93,564.2 -114.09,24.2 -1373.92,181.5 -1508.3,-466.7 0,0 -278.09,18.4 -461.94,-243.2 -192.93,-275 -269.23,-208.8 -456.56,-476.6 -203.45,-290.7 -175.45,-396.7 -126.45,-800.1 35.69,-293.3 102.42,-562.9 163.54,-848.3 60.65,117.6 232.6,263.3 373.98,67.6 0,0 34.3,-94.8 79.21,-442.1 0,0 108.02,-50 179.05,13.5"
         style="fill:#2c2234;fill-opacity:1;fill-rule:nonzero;stroke:none"
         id="path76" /><path
         d="m 8212.46,11824.7 c 5.6,0 11.09,0.2 16.45,0.6 33.02,2.4 57.8,31 55.41,64 -2.39,33.1 -30.97,58 -64.03,55.4 -102.84,-6.9 -299.09,107.3 -309.43,200.7 -3.6,32.9 -33.93,56.3 -66.14,53 -32.89,-3.7 -56.57,-33.3 -52.95,-66.2 18.54,-167 268,-307.5 420.69,-307.5"
         style="fill:#f57c6e;fill-opacity:1;fill-rule:nonzero;stroke:none"
         id="path78" /><path
         d="m 8403.71,14329.6 c -268.11,-133.5 -476.04,-151.5 -761.43,-103.7 -220.35,36.9 -466.89,-27 -631.2,-190 -159.87,-158.6 -360.92,-344.2 -536.01,-799.2 -112.91,-293.4 -300.43,493.4 -281.12,753.6 24.26,327.1 171.88,658.8 414.75,881 236.56,216.3 604.66,386.5 929.06,373.2 254.42,-10.4 504.04,-76 759.69,-51.6 183.14,17.3 423.97,97.4 575.26,-57.1 297.34,-303.6 -233.13,-688.7 -469,-806.2"
         style="fill:#2c2234;fill-opacity:1;fill-rule:nonzero;stroke:none"
         id="path80" /><path
         d="m 11842.1,2434.7 4.6,0.2 c 32.9,2.5 57.5,31.2 55,64.1 -87.5,1147.1 -177.9,2333.3 -236.3,3515.6 -1.5,32.9 -27.7,59.8 -62.6,56.8 -32.9,-1.7 -58.3,-29.7 -56.7,-62.7 58.5,-1183.9 149,-2370.9 236.5,-3518.8 2.4,-31.3 28.5,-55.2 59.5,-55.2"
         style="fill:#1d1e32;fill-opacity:1;fill-rule:nonzero;stroke:none"
         id="path82" /><path
         d="m 10057.9,2006.2 1463.2,604.3 c 0,0 65.1,4045.5 -983.9,6480.2 0,0 1356.2,-293.7 2368.5,-2538.8 0,0 1315.4,-2291.4 1370.6,-4545.7 h -4218.4"
         style="fill:#11273a;fill-opacity:1;fill-rule:nonzero;stroke:none"
         id="path84" /><path
         d="m 10893.6,2006.2 c -8.9,25.8 -293.6,883.9 649,1649.3 l 11.4,-420.4 c 0,0 240.6,-631.3 213.9,-1228.9 h -874.3"
         style="fill:#f8a18f;fill-opacity:1;fill-rule:nonzero;stroke:none"
         id="path86" /><path
         d="m 4135.65,2006.2 c -705.63,1212.9 -1412.76,2700.7 -1658.26,4111.4 0,0 -246.37,2205.9 1581.32,2728.9 0,0 2493.53,-2142.7 3223.3,-6822.5 L 10662,2006.2 H 4135.65"
         style="fill:#11273a;fill-opacity:1;fill-rule:nonzero;stroke:none"
         id="path88" /><path
         d="m 6216.69,2006.2 431.44,523.1 c 243.8,182.7 854.81,0 854.81,0 l 1236.04,-513 -143.43,-10.1 H 6216.69"
         style="fill:#f8a18f;fill-opacity:1;fill-rule:nonzero;stroke:none"
         id="path90" /></g></g></svg>
